#tb 0: 1/15
#media_type 0: video
#codec_id 0: rawvideo
#dimensions 0: 320x200
#sar 0: 0/1
0,          0,          0,        1,   192000, 0x00000000
0,          1,          1,        1,   192000, 0x00000000
0,          2,          2,        1,   192000, 0x00000000
0,          3,          3,        1,   192000, 0x00000000
0,          4,          4,        1,   192000, 0x9ee00ccf
0,          5,          5,        1,   192000, 0x67256507
0,          6,          6,        1,   192000, 0x74c70e87
0,          7,          7,        1,   192000, 0x8ecdce9a
0,          8,          8,        1,   192000, 0xc40f8efd
0,          9,          9,        1,   192000, 0xb8107dfb
0,         10,         10,        1,   192000, 0xb4e504eb
0,         11,         11,        1,   192000, 0x0c7fdb95
0,         12,         12,        1,   192000, 0x58c9f045
0,         13,         13,        1,   192000, 0xcba9d0e9
0,         14,         14,        1,   192000, 0x392a20f6
0,         15,         15,        1,   192000, 0xc37905cc
0,         16,         16,        1,   192000, 0xe278cf95
0,         17,         17,        1,   192000, 0x3d03b01d
0,         18,         18,        1,   192000, 0x16a26f28
0,         19,         19,        1,   192000, 0xdd17f51c
0,         20,         20,        1,   192000, 0x19703b85
0,         21,         21,        1,   192000, 0xe51f0e70
0,         22,         22,        1,   192000, 0x6f94ad2a
0,         23,         23,        1,   192000, 0x71e449f1
0,         24,         24,        1,   192000, 0x1dcacc52
0,         25,         25,        1,   192000, 0x49c23f58
0,         26,         26,        1,   192000, 0x4ce61551
0,         27,         27,        1,   192000, 0xe54832d5
0,         28,         28,        1,   192000, 0xbae28a59
0,         29,         29,        1,   192000, 0xe8a4efbe
0,         30,         30,        1,   192000, 0xe9e96883
0,         31,         31,        1,   192000, 0xa5468c49
0,         32,         32,        1,   192000, 0x7ec6936a
0,         33,         33,        1,   192000, 0x46e53ee4
0,         34,         34,        1,   192000, 0x937b168a
0,         35,         35,        1,   192000, 0xed76cec4
0,         36,         36,        1,   192000, 0x4b9f454d
0,         37,         37,        1,   192000, 0xb58c1566
